<?xml version="1.0" encoding="UTF-8"?>
<svg id="Layer_2" data-name="Layer 2" xmlns="http://www.w3.org/2000/svg" viewBox="0 0 238.78 160.15">
  <defs>
    <style>
      .cls-1 {
        fill: #fff;
        stroke-width: 0px;
      }
    </style>
  </defs>
  <g id="Layer_1-2" data-name="Layer 1">
    <g>
      <path class="cls-1" d="M129.85,94.56h-20.34c-.36-2.56-.76-4.99-1.04-7.44-.21-1.79-.98-3.05-3.06-3.54-2.79,1.1-5.78,2.29-9.14,3.61-3.36-5.79-6.7-11.56-10.19-17.59,2.56-2.04,5.07-4.03,7.76-6.17.06-.8.13-1.76.2-2.86-2.65-2.12-5.25-4.2-7.97-6.37,3.4-5.87,6.68-11.55,10.16-17.57,3.07,1.19,6.04,2.34,8.95,3.47,2.21-.16,3.04-1.48,3.28-3.43.3-2.46.67-4.91,1.05-7.6h20.32c.52,3.14,1.04,6.3,1.6,9.7.67.42,1.49.94,2.37,1.49,3.06-1.18,6.05-2.33,9.38-3.61,3.36,5.78,6.66,11.44,10.2,17.52-2.55,2.03-5.13,4.09-7.72,6.16-.89,1.96-.09,3.24,1.54,4.39,2.03,1.43,3.92,3.05,6.17,4.81-3.36,5.85-6.68,11.62-10.14,17.63-3.09-1.2-6.07-2.36-9.33-3.63-.76.44-1.69.98-2.47,1.42-.55,3.34-1.04,6.38-1.57,9.61ZM143.82,71.45c-2.08-1.68-4-3.22-5.9-4.76v-9.55c1.91-1.59,3.87-3.23,5.86-4.9-1.34-2.28-2.52-4.29-3.75-6.37-2.62.97-4.93,1.83-7.06,2.62-2.91-1.68-5.58-3.22-8.28-4.77-.41-2.4-.81-4.81-1.22-7.22h-7.45c-.5,2.69-.98,5.23-1.37,7.28-3.05,1.76-5.61,3.23-8.19,4.72-2.35-.88-4.65-1.74-7.06-2.64-1.34,2.32-2.51,4.34-3.73,6.44,2.17,1.79,4.16,3.43,5.83,4.81v9.64c-1.77,1.42-3.79,3.03-5.86,4.69,1.34,2.32,2.51,4.34,3.77,6.51,2.54-.97,4.84-1.85,7.06-2.71,2.77,1.63,5.44,3.19,8.22,4.83.48,2.41.97,4.92,1.45,7.38h7.31c.42-2.56.83-4.99,1.25-7.53,1.4-.71,2.87-1.37,4.26-2.17,1.38-.8,2.68-1.74,3.92-2.55,2.5.96,4.78,1.83,7.16,2.74,1.27-2.18,2.4-4.1,3.79-6.48Z"/>
      <path class="cls-1" d="M129.46,14.49c.53-2.43.97-4.46,1.4-6.41,17.71-.16,39.75,22.92,43.61,43.95,5.29,28.82-14.79,60.27-47.01,65.16.4.77.78,1.48,1.29,2.46-1.78,1.39-3.52,2.75-5.56,4.34-2.7-3.42-5.29-6.71-7.93-10.05,2.25-3.67,4.39-7.15,6.69-10.9,2.09,1.27,3.96,2.4,5.96,3.62-.3.9-.56,1.66-.9,2.67,5.12-.7,9.84-2.16,14.23-4.45,17.87-9.33,26.86-24.39,26.23-44.29-.78-24.52-14.63-39.25-38.01-46.11Z"/>
      <path class="cls-1" d="M112.02,6.8c-.41-.79-.79-1.52-1.3-2.48.77-.67,1.56-1.41,2.4-2.09.86-.69,1.77-1.33,2.97-2.22,3.04,3.06,5.38,6.52,8.07,9.83-2.19,3.57-4.33,7.05-6.68,10.86-2.06-1.24-3.92-2.36-5.87-3.53.18-.84.33-1.54.52-2.42-.87,0-1.74-.15-2.54.02-7.02,1.57-13.46,4.41-19.15,8.87-19.53,15.26-24.76,43.64-11.38,64.09,6.82,10.43,16.25,17.37,28.31,20.67.72.2,1.42.44,2.12.68.1.04.17.17.36.38-.42,2.08-.86,4.25-1.3,6.39-18.64-2.02-42.39-21.98-44.27-50.27-1.9-28.62,19.26-54.61,47.73-58.77Z"/>
      <path class="cls-1" d="M139.6,148.97c-2-.12-3.71-.23-5.75-.36-.11-1.09-.21-2.12-.34-3.44h10.78v14.34c-.92.09-1.97.19-3.16.3-.34-1.06-.62-1.96-.9-2.82-.38.04-.67-.01-.82.1-7.52,5.93-17.66,2.59-19.97-6.69-.98-3.94-.83-7.93,1.03-11.67,2.52-5.08,6.85-6.94,12.28-6.76,5.23.17,8.78,2.76,11.23,7.67-1.51.63-2.72,1.14-3.94,1.65-.75-.99-1.29-1.83-1.95-2.55-4.15-4.52-11.62-3.02-13.69,2.76-1.05,2.92-1,5.88-.01,8.8,1.21,3.57,4.3,5.66,8.03,5.49,3.73-.16,6.08-2.27,7.2-6.83Z"/>
      <path class="cls-1" d="M199.12,159.57h-4.49c0-3.23.02-6.31-.01-9.38-.01-1.11,0-2.27-.29-3.33-.76-2.73-3.67-3.53-5.45-1.35-.94,1.14-1.44,2.89-1.55,4.41-.23,3.08-.07,6.2-.07,9.57h-4.59c-.02-2.33-.01-4.76-.05-7.19-.03-1.74-.01-3.49-.23-5.21-.16-1.29-.91-2.29-2.31-2.64-1.54-.39-2.88.18-3.57,1.38-.7,1.23-1.12,2.76-1.2,4.19-.18,3.08-.05,6.18-.05,9.5h-4.38v-19.09c1.74.1,3.48-.86,4.77,1.07,4.82-2.21,6.34-2.03,10.09,1.41.82-.6,1.63-1.31,2.54-1.85,4.64-2.72,10.23-.29,10.77,5.01.45,4.4.09,8.87.09,13.5Z"/>
      <path class="cls-1" d="M63.83,132.39h4.21v15.53c3.43-2.18,5.07-5.34,7.81-7.47h5.76c-2.54,2.65-4.73,4.93-7.09,7.39,2.64,3.94,5.17,7.72,7.9,11.79h-5.41c-1.77-2.76-3.58-5.57-5.69-8.86-1.08,1.24-2.01,2.32-3.15,3.65v5.12h-4.32v-27.15Z"/>
      <path class="cls-1" d="M165.44,159.6h-3.37c-.28-.55-.59-1.16-.94-1.85-.41.21-.78.31-1.03.54-2.06,1.88-4.5,1.99-7.02,1.48-3.07-.62-4.94-3.11-4.81-6.2.12-2.81,1.77-4.58,5.04-5.01,2.44-.32,4.91-.33,7.38-.49-.68-4.73-3.18-5.19-8.53-1.68-.85-.63-1.74-1.29-2.61-1.94,1.87-3.61,5.25-5.03,9.77-4.2,3.56.66,5.92,3.19,6.08,6.99.16,3.97.04,7.95.04,12.36ZM160.87,151.52c-2.06.09-4.03.05-5.94.31-1.19.17-2.09,1.21-1.67,2.42.26.75,1.25,1.55,2.05,1.74,2.55.58,4.5-.99,5.57-4.47Z"/>
      <path class="cls-1" d="M221.1,151.63h-12.94c1.31,4.77,3.97,5.41,9.8,2.31.74.75,1.59,1.6,2.53,2.55-3.35,3.81-7.22,4.08-11.23,3.05-3.62-.93-5.57-3.72-6.17-7.28-.68-4.03.14-7.78,3.54-10.42,5.32-4.15,12.84-1.37,14.35,5.22.19.85.32,1.71.39,2.58.04.47-.12.96-.27,2ZM216.59,148.02c-1.26-3.42-2.24-4.19-4.61-4.02-2.17.16-2.9.9-3.74,4.02h8.35Z"/>
      <path class="cls-1" d="M35.93,148.09c-.92-4.74-3.48-5.18-8.52-1.69-.89-.66-1.84-1.36-2.78-2.06,2.93-4.31,8.92-5.63,12.81-2.94,1.83,1.27,3.02,3.03,3.06,5.29.08,4.2.02,8.41.02,12.86-1.23.06-2.29.11-3.35.16-.29-.75-.51-1.3-.75-1.93-.32.13-.7.18-.94.39-2.02,1.87-4.44,2.11-6.98,1.65-3.09-.56-5.09-2.97-5.08-6,.01-2.91,1.81-4.85,5.2-5.28,2.32-.3,4.69-.31,7.31-.46ZM35.97,151.54c-2.04.09-3.98.03-5.86.31-1.15.17-2.08,1.19-1.62,2.42.28.74,1.23,1.55,2.01,1.73,2.54.58,4.56-1.06,5.47-4.47Z"/>
      <path class="cls-1" d="M8.4,136.53H0v-4.09h21.58c.07,1.28.14,2.46.23,4.02h-8.26c-.51,4.12-.19,7.94-.25,11.73-.06,3.71-.01,7.42-.01,11.34h-4.88v-23.01Z"/>
      <path class="cls-1" d="M101.64,140.57c.19.41.4.85.63,1.36.33-.13.69-.22,1.01-.4,6.15-3.38,11.13-.78,11.43,6.11.17,3.85.03,7.71.03,11.84h-4.55c0-1.77.01-3.6,0-5.42-.02-2.12.07-4.25-.14-6.35-.2-2.04-1.56-3.25-3.39-3.41-1.95-.18-3.7.92-4.21,2.92-.34,1.31-.41,2.7-.45,4.06-.07,2.71-.02,5.42-.02,8.29h-4.03c-.68-2.55-.85-13.55-.25-19h3.95Z"/>
      <path class="cls-1" d="M229,146.13c1.47.57,2.92,1.19,4.4,1.71,4.12,1.46,5.87,3.75,5.27,6.97-.62,3.29-3.52,5.29-7.6,5.2-3.54-.07-6.15-1.64-7.88-5.09,1.12-.58,2.17-1.12,3.19-1.65,3.68,3.74,5.47,3.88,7.98.32-.9-.56-1.73-1.22-2.67-1.62-1.25-.53-2.63-.78-3.88-1.3-2.13-.89-3.37-2.43-3.3-4.89.07-2.38,1.22-4,3.29-5,3.75-1.8,8.14-.49,10.78,3.31-.92.59-1.83,1.17-2.34,1.49-2.09-.69-3.74-1.38-5.46-1.71-.54-.1-1.27.77-1.91,1.2.04.35.09.7.13,1.04Z"/>
      <path class="cls-1" d="M43.86,154.86c.97-.51,1.94-1.02,3.06-1.61,1.5,1.41,2.71,3.39,5.24,2.88,1.35-.27,2.33-.81,2.51-2.81-.77-.43-1.65-1.03-2.61-1.42-1.15-.47-2.4-.68-3.54-1.16-2.56-1.08-3.67-2.76-3.51-5.15.17-2.52,1.58-4.18,3.85-5.04,3.78-1.43,7.53-.19,10.31,3.46-.9.6-1.79,1.18-2.76,1.82-2.27-1.26-4.46-3.79-7.26-.17,1.16.61,2.06,1.17,3.02,1.58,1.14.49,2.37.77,3.5,1.29,2.66,1.22,3.67,2.9,3.54,5.56-.13,2.69-1.62,4.4-4,5.36-4.46,1.81-8.94.01-11.36-4.6Z"/>
      <path class="cls-1" d="M86.39,132.41h4.49c.42,9.05.08,18.05.22,27.19h-4.71v-27.19Z"/>
      <path class="cls-1" d="M119.62,72.83c-6.24-.06-11.08-5.08-10.91-11.31.16-5.91,5.34-10.8,11.27-10.63,5.84.17,10.69,5.04,10.74,10.8.05,6.24-4.88,11.19-11.1,11.13ZM123.32,61.85c-.03-1.95-1.61-3.53-3.58-3.55-1.96-.02-3.59,1.52-3.65,3.46-.06,2.06,1.69,3.8,3.75,3.73,1.88-.06,3.5-1.77,3.48-3.65Z"/>
    </g>
  </g>
</svg>